<svg xmlns="http://www.w3.org/2000/svg" xmlns:xlink="http://www.w3.org/1999/xlink" width="427.788" height="114.179" viewBox="0 0 427.788 114.179"><defs><clipPath id="clip-path"><rect id="Rectangle_369" data-name="Rectangle 369" width="427.788" height="114.179" fill="none"></rect></clipPath></defs><g id="Groupe_733" data-name="Groupe 733" transform="translate(0 0)"><g id="Groupe_732" data-name="Groupe 732" transform="translate(0 0)" clip-path="url(#clip-path)"><path id="Trac&#xE9;_3110" data-name="Trac&#xE9; 3110" d="M43.316,0a7.242,7.242,0,0,0-7.242,7.242V36.076H7.24a7.241,7.241,0,0,0,0,14.482H43.316a7.242,7.242,0,0,0,7.242-7.242V7.242A7.242,7.242,0,0,0,43.316,0" transform="translate(0 0.001)" fill="#e41d23"></path><path id="Trac&#xE9;_3111" data-name="Trac&#xE9; 3111" d="M76.846,33.532H40.774a7.241,7.241,0,0,0-7.242,7.242V76.848a7.241,7.241,0,1,0,14.482,0V48.014H76.846a7.241,7.241,0,1,0,0-14.482" transform="translate(30.089 30.09)" fill="#50addb"></path><path id="Trac&#xE9;_3112" data-name="Trac&#xE9; 3112" d="M50.228,38.727A7.4,7.4,0,0,0,50,38a7.38,7.38,0,0,0-.378-.717c-.1-.175-.173-.359-.286-.527a7.274,7.274,0,0,0-2.011-2.011c-.165-.11-.345-.186-.518-.281a7.364,7.364,0,0,0-.727-.383c-.233-.095-.476-.15-.717-.222-.211-.063-.414-.144-.634-.188a7.269,7.269,0,0,0-1.417-.142H7.24a7.241,7.241,0,0,0,0,14.482H25.834L7.688,66.16A7.241,7.241,0,1,0,17.928,76.4L36.074,58.254V76.848a7.242,7.242,0,1,0,14.484,0V40.772a7.142,7.142,0,0,0-.144-1.417c-.044-.216-.123-.417-.186-.628" transform="translate(0 30.09)" fill="#b5bfc5"></path><path id="Trac&#xE9;_3113" data-name="Trac&#xE9; 3113" d="M33.674,44.735c.042.214.123.412.184.619a7.138,7.138,0,0,0,.228.734,7.48,7.48,0,0,0,.362.691c.1.184.184.378.3.554a7.344,7.344,0,0,0,.9,1.106h0a7.112,7.112,0,0,0,1.1.9c.171.116.357.194.535.292a7.659,7.659,0,0,0,.71.374,7.533,7.533,0,0,0,.721.224c.211.061.412.142.63.186a7.284,7.284,0,0,0,1.417.142H76.846a7.241,7.241,0,1,0,0-14.482H58.252L76.4,17.93A7.241,7.241,0,1,0,66.158,7.69L48.014,25.836V7.242a7.241,7.241,0,1,0-14.482,0V43.318a7.284,7.284,0,0,0,.142,1.417" transform="translate(30.089 0.001)" fill="#d1d8dc"></path><path id="Trac&#xE9;_3114" data-name="Trac&#xE9; 3114" d="M134.16,55.246c3.157,0,5.178,1.753,5.178,4.74s-2.021,4.825-5.178,4.825H96.7c-3.514,0-5.616-2.106-5.616-5.616V11.11c0-3.514,1.928-5.616,5.259-5.616,3.25,0,5.182,2.1,5.182,5.616V55.246Z" transform="translate(81.727 4.93)" fill="#404649"></path><path id="Trac&#xE9;_3115" data-name="Trac&#xE9; 3115" d="M177.208,11.021V58.93c0,3.863-2.281,6.407-6.054,6.407a7.4,7.4,0,0,1-6.054-3.072L134.124,22.691h-.175V59.807c0,3.425-1.931,5.531-5.178,5.531-3.161,0-5.092-2.106-5.092-5.531V11.9c0-3.859,2.374-6.4,6.058-6.4A7.156,7.156,0,0,1,135.7,8.477l31.065,39.834h.175V11.021c0-3.425,1.928-5.527,5.089-5.527,3.246,0,5.178,2.1,5.178,5.527" transform="translate(110.98 4.93)" fill="#404649"></path><path id="Trac&#xE9;_3116" data-name="Trac&#xE9; 3116" d="M184.954,5.77c20.095,0,31.85,10.883,31.85,29.4s-11.756,29.4-31.85,29.4H167.4c-3.506,0-5.616-2.106-5.616-5.616V11.386c0-3.51,2.11-5.616,5.616-5.616ZM185.482,55c12.9,0,20.618-7.373,20.618-19.831s-7.718-19.833-20.618-19.833H172.229V55Z" transform="translate(145.174 5.178)" fill="#404649"></path><path id="Trac&#xE9;_3117" data-name="Trac&#xE9; 3117" d="M224.77,30.134c18.512.264,25.183,5.178,25.183,17.023,0,12.021-9.386,18.956-25.621,18.956-11.41,0-20.005-2.986-24.832-8.688a5.642,5.642,0,0,1-1.317-3.774,4.652,4.652,0,0,1,4.912-4.914,4.884,4.884,0,0,1,3.334,1.228c4.476,4.389,10.7,6.669,18.694,6.669,8.773,0,14.126-3.421,14.126-9.124,0-4.825-3.774-6.756-15.708-7.02-17.989-.353-24.481-5.089-24.481-16.321,0-11.585,9.828-18.954,25.272-18.954,8.952,0,16.235,2.455,21.409,7.105a5.213,5.213,0,0,1,1.753,4.127,4.435,4.435,0,0,1-4.383,4.74,6.141,6.141,0,0,1-3.863-1.229,23.78,23.78,0,0,0-15.708-5.267c-8.339,0-13.862,3.688-13.862,9.126,0,4.476,3.506,6.144,15.091,6.318" transform="translate(177.834 4.68)" fill="#404649"></path><path id="Trac&#xE9;_3118" data-name="Trac&#xE9; 3118" d="M96.5,61.882a.391.391,0,1,1,0,.782H91.667a.433.433,0,0,1-.452-.436V52.97a.435.435,0,1,1,.871,0v8.912Z" transform="translate(81.849 47.141)" fill="#404649"></path><path id="Trac&#xE9;_3119" data-name="Trac&#xE9; 3119" d="M101.162,52.968a.425.425,0,0,1,.436-.434.418.418,0,0,1,.436.434V59.04c0,2.436-1.444,3.8-3.622,3.8s-3.622-1.366-3.622-3.8V52.968a.417.417,0,0,1,.436-.434.425.425,0,0,1,.434.434v6.1c0,1.939,1.007,2.99,2.751,2.99s2.749-1.051,2.749-2.99Z" transform="translate(85.058 47.141)" fill="#404649"></path><path id="Trac&#xE9;_3120" data-name="Trac&#xE9; 3120" d="M103.225,56.938l2.795-4.208a.4.4,0,0,1,.378-.2.37.37,0,0,1,.389.391.451.451,0,0,1-.089.241l-2.96,4.478,3.036,4.51a.444.444,0,0,1,.074.239.4.4,0,0,1-.421.391.39.39,0,0,1-.36-.2l-2.84-4.239-2.84,4.239a.391.391,0,0,1-.362.2.4.4,0,0,1-.419-.391.444.444,0,0,1,.074-.239l3.036-4.51-2.96-4.478a.451.451,0,0,1-.089-.241.37.37,0,0,1,.389-.391.4.4,0,0,1,.378.2Z" transform="translate(89.376 47.141)" fill="#404649"></path><path id="Trac&#xE9;_3121" data-name="Trac&#xE9; 3121" d="M109.979,62.606h-5.051a.43.43,0,0,1-.45-.434V53.032a.436.436,0,0,1,.434-.436h5.02a.391.391,0,0,1,.4.391.4.4,0,0,1-.389.393h-4.6v3.711h2.886a.391.391,0,1,1,0,.782H105.35v3.952h4.629a.391.391,0,1,1,0,.782" transform="translate(93.751 47.196)" fill="#404649"></path><path id="Trac&#xE9;_3122" data-name="Trac&#xE9; 3122" d="M116.6,52.849c.091-.2.2-.315.408-.315a.387.387,0,0,1,.419.421v9.407a.42.42,0,1,1-.841,0V55.014l-3.142,7.468a.445.445,0,0,1-.842,0l-3.14-7.468v7.348a.42.42,0,1,1-.841,0V52.955a.385.385,0,0,1,.419-.421c.211,0,.317.12.406.315l3.576,8.553Z" transform="translate(97.473 47.141)" fill="#404649"></path><path id="Trac&#xE9;_3123" data-name="Trac&#xE9; 3123" d="M118.085,62.606h-2.977a.439.439,0,0,1-.45-.434V53.032a.425.425,0,0,1,.434-.436h2.721c1.7,0,2.84.933,2.84,2.5a2.383,2.383,0,0,1-1.548,2.252,2.509,2.509,0,0,1,2.224,2.541c0,1.413-1.036,2.721-3.244,2.721m-.241-9.244h-2.315v3.7h2.239a1.878,1.878,0,0,0,2.015-1.878,1.741,1.741,0,0,0-1.939-1.82m.209,4.449h-2.523V61.84h2.615c1.533,0,2.315-.841,2.315-2.013,0-1.2-.886-2.015-2.406-2.015" transform="translate(102.885 47.196)" fill="#404649"></path><path id="Trac&#xE9;_3124" data-name="Trac&#xE9; 3124" d="M123.136,52.5c2.645,0,4.117,2.345,4.117,5.185s-1.472,5.185-4.117,5.185-4.117-2.345-4.117-5.185,1.472-5.185,4.117-5.185m0,.767c-2.224,0-3.244,2.284-3.244,4.419s1.021,4.417,3.244,4.417,3.248-2.284,3.248-4.417-1.025-4.419-3.248-4.419" transform="translate(106.799 47.112)" fill="#404649"></path><path id="Trac&#xE9;_3125" data-name="Trac&#xE9; 3125" d="M130.805,52.968a.425.425,0,0,1,.436-.434.418.418,0,0,1,.436.434V59.04c0,2.436-1.444,3.8-3.622,3.8s-3.622-1.366-3.622-3.8V52.968a.417.417,0,0,1,.436-.434.425.425,0,0,1,.434.434v6.1c0,1.939,1.007,2.99,2.751,2.99s2.749-1.051,2.749-2.99Z" transform="translate(111.658 47.141)" fill="#404649"></path><path id="Trac&#xE9;_3126" data-name="Trac&#xE9; 3126" d="M129.578,53.033a.436.436,0,0,1,.434-.436h3.305c1.986,0,3.068,1.157,3.068,2.795a2.618,2.618,0,0,1-2.119,2.69l2.045,4.013a.409.409,0,0,1,.059.211.43.43,0,0,1-.421.421.406.406,0,0,1-.4-.256l-2.182-4.282h-2.914v4.1a.418.418,0,0,1-.436.436.427.427,0,0,1-.434-.436Zm3.907.345h-3.036v4.043h2.99a2.022,2.022,0,1,0,.046-4.043" transform="translate(116.273 47.197)" fill="#404649"></path><path id="Trac&#xE9;_3127" data-name="Trac&#xE9; 3127" d="M141.633,61.533a4.293,4.293,0,0,1-3.335,1.338c-2.855,0-4.256-2.525-4.256-5.185,0-2.945,1.641-5.183,4.18-5.183a3.574,3.574,0,0,1,3.007,1.472.492.492,0,0,1,.118.285.406.406,0,0,1-.421.406.376.376,0,0,1-.328-.18,2.93,2.93,0,0,0-2.362-1.188c-2.074,0-3.318,1.924-3.318,4.389s1.066,4.434,3.394,4.434a3.636,3.636,0,0,0,2.586-.932V58.663h-2.419a.391.391,0,1,1,0-.782h2.838a.394.394,0,0,1,.421.421v2.9a.547.547,0,0,1-.1.33" transform="translate(120.279 47.112)" fill="#404649"></path><path id="Trac&#xE9;_3128" data-name="Trac&#xE9; 3128" d="M148.1,62.783a.437.437,0,0,1-.391-.241l-5.335-8.221v8.041a.42.42,0,1,1-.841,0V52.955a.386.386,0,0,1,.421-.421.452.452,0,0,1,.374.211l5.35,8.25V52.955a.394.394,0,0,1,.421-.421.4.4,0,0,1,.421.421v9.407a.412.412,0,0,1-.421.421" transform="translate(127.003 47.141)" fill="#404649"></path><path id="Trac&#xE9;_3129" data-name="Trac&#xE9; 3129" d="M154.359,62.212a.482.482,0,0,1,.045.2c0,.2-.15.376-.45.376a.4.4,0,0,1-.391-.3l-.962-2.495h-4.538l-.962,2.495a.4.4,0,0,1-.391.3c-.3,0-.45-.18-.45-.376a.515.515,0,0,1,.046-.2l3.59-9.348a.453.453,0,0,1,.873,0Zm-4.026-8.371-2,5.366h4Z" transform="translate(131.243 47.141)" fill="#404649"></path><path id="Trac&#xE9;_3130" data-name="Trac&#xE9; 3130" d="M154.513,53.379V62.29a.436.436,0,1,1-.873,0V53.379h-2.78a.391.391,0,0,1,0-.782h6.434a.391.391,0,0,1,0,.782Z" transform="translate(135.02 47.197)" fill="#404649"></path><path id="Trac&#xE9;_3131" data-name="Trac&#xE9; 3131" d="M155.565,62.783a.436.436,0,0,1-.434-.436V52.968a.435.435,0,0,1,.871,0v9.378a.436.436,0,0,1-.436.436" transform="translate(139.203 47.141)" fill="#404649"></path><path id="Trac&#xE9;_3132" data-name="Trac&#xE9; 3132" d="M160.881,52.5c2.645,0,4.117,2.345,4.117,5.185s-1.472,5.185-4.117,5.185-4.117-2.345-4.117-5.185,1.472-5.185,4.117-5.185m0,.767c-2.224,0-3.244,2.284-3.244,4.419s1.021,4.417,3.244,4.417,3.248-2.284,3.248-4.417-1.025-4.419-3.248-4.419" transform="translate(140.668 47.112)" fill="#404649"></path><path id="Trac&#xE9;_3133" data-name="Trac&#xE9; 3133" d="M168.81,62.783a.437.437,0,0,1-.391-.241l-5.335-8.221v8.041a.42.42,0,1,1-.841,0V52.955a.386.386,0,0,1,.421-.421.452.452,0,0,1,.374.211l5.35,8.25V52.955a.394.394,0,0,1,.421-.421.4.4,0,0,1,.421.421v9.407a.412.412,0,0,1-.421.421" transform="translate(145.584 47.141)" fill="#404649"></path><path id="Trac&#xE9;_3134" data-name="Trac&#xE9; 3134" d="M175.066,62.212a.481.481,0,0,1,.046.2c0,.2-.15.376-.45.376a.4.4,0,0,1-.391-.3l-.962-2.495H168.77l-.962,2.495a.4.4,0,0,1-.391.3c-.3,0-.45-.18-.45-.376a.515.515,0,0,1,.046-.2l3.59-9.348a.453.453,0,0,1,.873,0Zm-4.026-8.371-2,5.366h4Z" transform="translate(149.824 47.141)" fill="#404649"></path><path id="Trac&#xE9;_3135" data-name="Trac&#xE9; 3135" d="M177.594,61.882a.391.391,0,0,1,0,.782h-4.838a.433.433,0,0,1-.452-.436V52.97a.435.435,0,1,1,.871,0v8.912Z" transform="translate(154.612 47.141)" fill="#404649"></path><path id="Trac&#xE9;_3136" data-name="Trac&#xE9; 3136" d="M181.074,62.605h-2.224a.439.439,0,0,1-.45-.434V53.033a.436.436,0,0,1,.435-.436h2.226c2.914,0,4.419,2.165,4.419,5.005s-1.5,5-4.406,5m-.059-9.227h-1.744v8.447h1.744c2.523,0,3.59-1.985,3.59-4.223s-1.066-4.223-3.59-4.223" transform="translate(160.083 47.197)" fill="#404649"></path><path id="Trac&#xE9;_3137" data-name="Trac&#xE9; 3137" d="M190.677,62.212a.482.482,0,0,1,.046.2c0,.2-.15.376-.45.376a.4.4,0,0,1-.391-.3l-.962-2.495h-4.538l-.962,2.495a.4.4,0,0,1-.391.3c-.3,0-.45-.18-.45-.376a.516.516,0,0,1,.046-.2l3.59-9.348a.453.453,0,0,1,.873,0Zm-4.026-8.371-2,5.366h4Z" transform="translate(163.832 47.141)" fill="#404649"></path><path id="Trac&#xE9;_3138" data-name="Trac&#xE9; 3138" d="M190.831,53.379V62.29a.436.436,0,1,1-.873,0V53.379h-2.78a.391.391,0,1,1,0-.782h6.434a.391.391,0,0,1,0,.782Z" transform="translate(167.609 47.197)" fill="#404649"></path><path id="Trac&#xE9;_3139" data-name="Trac&#xE9; 3139" d="M198.6,62.212a.482.482,0,0,1,.046.2c0,.2-.15.376-.45.376a.4.4,0,0,1-.391-.3l-.962-2.495h-4.538l-.962,2.495a.4.4,0,0,1-.391.3c-.3,0-.45-.18-.45-.376a.515.515,0,0,1,.046-.2l3.59-9.348a.453.453,0,0,1,.873,0Zm-4.026-8.371-2,5.366h4Z" transform="translate(170.946 47.141)" fill="#404649"></path><path id="Trac&#xE9;_3140" data-name="Trac&#xE9; 3140" d="M201.144,62.873a4.417,4.417,0,0,1-3.11-1.2.522.522,0,0,1-.211-.406.351.351,0,0,1,.376-.36.453.453,0,0,1,.345.165,3.68,3.68,0,0,0,2.6,1.036c1.565,0,2.315-.765,2.315-1.727,0-.916-.675-1.472-2.495-2.36-2.224-1.081-3.051-1.909-3.051-3.127,0-1.5,1.262-2.389,3.155-2.389a4.388,4.388,0,0,1,2.645.827c.182.12.317.239.317.406a.38.38,0,0,1-.376.406.59.59,0,0,1-.33-.135,3.926,3.926,0,0,0-2.256-.738c-1.321,0-2.283.467-2.283,1.622,0,.918.675,1.429,2.374,2.315,2.135,1.112,3.17,1.728,3.17,3.157s-1.142,2.51-3.186,2.51" transform="translate(177.512 47.112)" fill="#404649"></path><path id="Trac&#xE9;_3141" data-name="Trac&#xE9; 3141" d="M207.843,62.606h-5.051a.43.43,0,0,1-.45-.434V53.032a.436.436,0,0,1,.434-.436h5.02a.391.391,0,0,1,.4.391.4.4,0,0,1-.389.393h-4.6v3.711H206.1a.391.391,0,0,1,0,.782h-2.886v3.952h4.629a.391.391,0,0,1,0,.782" transform="translate(181.567 47.196)" fill="#404649"></path><path id="Trac&#xE9;_3142" data-name="Trac&#xE9; 3142" d="M206.49,53.033a.436.436,0,0,1,.434-.436h3.305c1.986,0,3.068,1.157,3.068,2.795a2.618,2.618,0,0,1-2.119,2.69l2.045,4.013a.409.409,0,0,1,.059.211.43.43,0,0,1-.421.421.406.406,0,0,1-.4-.256l-2.182-4.282h-2.914v4.1a.418.418,0,0,1-.436.436.427.427,0,0,1-.434-.436Zm3.907.345h-3.036v4.043h2.99a2.022,2.022,0,1,0,.046-4.043" transform="translate(185.288 47.197)" fill="#404649"></path><path id="Trac&#xE9;_3143" data-name="Trac&#xE9; 3143" d="M214.524,61.174l3.036-8.356a.367.367,0,0,1,.391-.285.388.388,0,0,1,.421.389.62.62,0,0,1-.046.211l-3.4,9.333a.419.419,0,0,1-.812,0l-3.394-9.333a.542.542,0,0,1-.046-.211.386.386,0,0,1,.421-.389.369.369,0,0,1,.391.285Z" transform="translate(189.044 47.141)" fill="#404649"></path><path id="Trac&#xE9;_3144" data-name="Trac&#xE9; 3144" d="M216.089,62.783a.436.436,0,0,1-.435-.436V52.968a.435.435,0,0,1,.871,0v9.378a.436.436,0,0,1-.436.436" transform="translate(193.512 47.141)" fill="#404649"></path><path id="Trac&#xE9;_3145" data-name="Trac&#xE9; 3145" d="M224.263,54.936a.393.393,0,0,1-.362-.211,2.786,2.786,0,0,0-2.448-1.457c-2.1,0-3.29,2-3.29,4.419s1.186,4.417,3.29,4.417a2.786,2.786,0,0,0,2.448-1.457.393.393,0,0,1,.362-.211.409.409,0,0,1,.421.406.512.512,0,0,1-.1.285,3.6,3.6,0,0,1-3.127,1.746c-2.662,0-4.165-2.256-4.165-5.185s1.5-5.185,4.165-5.185a3.607,3.607,0,0,1,3.127,1.744.518.518,0,0,1,.1.285.407.407,0,0,1-.421.406" transform="translate(194.978 47.112)" fill="#404649"></path><path id="Trac&#xE9;_3146" data-name="Trac&#xE9; 3146" d="M227.727,62.606h-5.051a.43.43,0,0,1-.45-.434V53.032a.436.436,0,0,1,.434-.436h5.02a.391.391,0,0,1,.4.391.4.4,0,0,1-.389.393h-4.6v3.711h2.886a.391.391,0,0,1,0,.782H223.1v3.952h4.629a.391.391,0,1,1,0,.782" transform="translate(199.409 47.196)" fill="#404649"></path></g></g></svg>