<svg xmlns="http://www.w3.org/2000/svg" viewBox="312 640 875 219"><defs><style>      .st0 {        fill: #5546ae;      }      .st1 {        display: none;      }    </style></defs><g id="Layer_2" class="st1"><rect width="1500" height="1500"></rect></g><g id="Layer_1"><g><path class="st0" d="M507.21,803.43h-100.91c-26.46,0-34.16-7.96-34.16-35.19v-99.37c0-4.85-3.93-8.77-8.77-8.77h-21.5c-4.99,0-9.03,4.04-9.03,9.03v165.33c0,3.01,2.44,5.45,5.45,5.45h168.93c4.85,0,8.77-3.93,8.77-8.77v-18.93c0-4.85-3.93-8.77-8.77-8.77Z"></path><path class="st0" d="M685.01,733.3h-96.33c-8.99,0-13.36-4.88-13.36-14.38v-8.73c0-8.99,3.85-14.38,13.61-14.38h128.69c3.85,0,5.65-1.8,5.65-5.65v-24.4c0-3.85-1.8-5.65-5.65-5.65h-136.14c-31.08,0-45.47,16.95-45.47,41.87v18.75c0,28.26,15.41,44.18,44.95,44.18h96.33c8.99,0,13.36,4.88,13.36,14.39v10.53c0,8.99-3.85,14.39-13.61,14.39h-134.86c-3.85,0-5.91,1.8-5.91,5.65v24.4c0,3.85,2.06,5.65,5.91,5.65h142.31c31.08,0,45.47-16.95,45.47-41.87v-20.55c0-28.26-15.41-44.18-44.95-44.18Z"></path><path class="st0" d="M954.73,660.09h-200.62c-3.85,0-5.91,1.8-5.91,5.65v25.17c0,3.85,2.05,5.91,5.91,5.91h80.66v137.43c0,3.85,1.8,5.65,5.65,5.65h28c3.85,0,5.65-1.8,5.65-5.65v-137.43h80.66c3.85,0,5.91-2.06,5.91-5.91v-25.17c0-3.85-2.06-5.65-5.91-5.65Z"></path><path class="st0" d="M1049.01,695.8h112.25c3.85,0,5.91-1.8,5.91-5.65v-24.4c0-3.85-2.06-5.65-5.91-5.65h-113.02c-51.89,0-71.93,18.49-71.93,67.81v44.18c0,49.32,20.04,67.81,71.93,67.81h113.02c3.85,0,5.91-1.8,5.91-5.65v-24.4c0-3.85-2.06-5.65-5.91-5.65h-112.25c-26.71,0-34.16-7.96-34.16-34.94v-4.37h145.13c3.85,0,5.65-1.8,5.65-5.65v-20.29c0-3.85-1.8-5.65-5.65-5.65h-145.13v-2.57c0-26.97,7.45-34.93,34.16-34.93Z"></path></g></g></svg>