<?xml version="1.0" encoding="UTF-8"?>
<svg id="thales-logo" xmlns="http://www.w3.org/2000/svg" viewBox="52.8 54 472 105.8">
  <defs>
    <style>
      .thales-navy {
        fill: #242a75;
      }

      .thales-cyan {
        fill: #0bd;
      }
    </style>
  </defs>
  <g>
    <path class="thales-navy" d="M524.33,95.49c0,7.58-2.2,9.82-8.24,11.64-6.54,1.98-18.15,3.2-25.07,3.2-8.18,0-18.37-.53-27.07-2.53v-8.76h47.99v-11.91h-33.96c-10.21,0-14.01-2.81-14.01-12.78v-5.21c0-7.86,2.32-10.23,8.71-11.88,6.42-1.66,16.94-2.74,23.81-2.74,8.34,0,18.36.65,27.09,2.58v8.77h-47.22v10.07h33.96c10.21,0,14.01,2.75,14.01,12.72v6.81Z"/>
    <path class="thales-navy" d="M442.48,107.82c-9.94,1.97-19.96,2.51-29.66,2.51s-19.89-.54-29.84-2.51v-50.7c9.94-1.97,20.02-2.58,29.72-2.58s19.59.61,29.54,2.58v9.05h-44.94v10.13h29.26v10.52h-29.26v11.96h45.17v9.04Z"/>
    <path class="thales-navy" d="M365.83,107.82c-8.92,1.98-17.93,2.51-26.58,2.51s-17.83-.53-26.75-2.51v-52.02h14.32v42.31h39.01v9.71Z"/>
    <path class="thales-navy" d="M295.33,108.14c-4.77,1.37-11.08,1.86-15.77,1.94l-22.06-44.55h-1.23l-22.05,44.55c-4.71-.08-10.24-.57-15.01-1.94l27.93-52.32h19.91l28.28,52.32Z"/>
    <path class="thales-cyan" d="M266.23,94.85c0,5.12-4.22,9.27-9.33,9.27s-9.27-4.16-9.27-9.27,4.15-9.27,9.27-9.27,9.33,4.14,9.33,9.27"/>
    <path class="thales-navy" d="M201.95,108.2c-4.57,1.32-9.46,1.79-14.33,1.88v-22.73h-35.58v22.73c-4.87-.09-9.75-.56-14.32-1.88v-51.4c4.57-1.32,9.45-1.8,14.32-1.88v21.93h35.58v-21.93c4.87.09,9.75.57,14.33,1.88v51.4Z"/>
    <path class="thales-navy" d="M117.76,66.3h-25.13v42.87h-14.18v-42.87h-25.13v-9.15c10.82-1.97,21.69-2.58,32.25-2.58s21.38.62,32.18,2.58v9.15Z"/>
  </g>
  <g>
    <path class="thales-cyan" d="M70.05,129.43c1.37,1.02,2.07,2.8,2.07,5.31,0,3.46-1.02,5.08-3.59,5.56v.1c3.05.38,4.13,2.16,4.13,5.72,0,2.51-.67,4.29-2,5.27-1.33.98-3.53,1.46-6.58,1.46-3.75,0-6.96-.1-9.63-.32-.32-.03-.48-.16-.48-.44v-23.39c0-.35.1-.41.48-.44,2.57-.22,5.53-.35,8.86-.35,3.15,0,5.37.51,6.74,1.52ZM58.96,132.26v6.32h3.24c1.87,0,3.18-.19,3.85-.57.67-.41,1.02-1.24,1.02-2.51,0-2.51-1.18-3.24-4.26-3.24h-3.84ZM58.96,142.17v6.32h4.77c2.83,0,3.88-.73,3.88-3.05,0-2.51-1.18-3.27-3.84-3.27h-4.8Z"/>
    <path class="thales-cyan" d="M91.02,134.89c.29,0,.44.16.44.48v16.4c0,.38-.1.44-.44.54-1.87.35-4.42.54-7.63.54s-4.83-.25-6.1-1.4c-1.24-1.14-1.56-2.92-1.56-6.26v-9.82c0-.32.16-.48.51-.48h3.75c.29,0,.44.16.44.48v8.61c0,1.56.1,2.67.29,3.34.38,1.27.98,1.46,3.15,1.46h2.86v-13.41c0-.32.16-.48.48-.48h3.81Z"/>
    <path class="thales-cyan" d="M100.37,129.94c0,1.62-.98,2.57-2.73,2.57s-2.8-.95-2.8-2.57,1.02-2.54,2.8-2.54,2.73.92,2.73,2.54ZM99.48,134.89c.32,0,.48.16.48.48v16.81c0,.35-.16.51-.48.51h-3.75c-.32,0-.48-.16-.48-.51v-16.81c0-.32.16-.48.48-.48h3.75Z"/>
    <path class="thales-cyan" d="M107.99,128.09c.32,0,.48.16.48.48v23.61c0,.35-.16.51-.48.51h-3.75c-.32,0-.48-.16-.48-.51v-23.61c0-.32.16-.48.48-.48h3.75Z"/>
    <path class="thales-cyan" d="M127.15,128.09c.32,0,.48.16.48.51v22.85c0,.48-.22.73-.67.79-2.54.41-4.86.6-6.99.6-3.34,0-5.53-.6-6.61-1.81-1.08-1.21-1.62-3.62-1.62-7.21s.48-5.97,1.46-7.21c.98-1.24,2.92-1.87,5.81-1.87,1.43,0,2.73.06,3.91.19v-6.32c0-.35.16-.51.48-.51h3.75ZM122.93,138.83h-2.86c-1.56,0-2.57.32-2.99.92s-.64,1.94-.64,4.04.19,3.34.57,4c.41.67,1.37.98,2.86.98,1.14,0,2.16-.06,3.05-.22v-9.72Z"/>
    <path class="thales-cyan" d="M136.53,129.94c0,1.62-.98,2.57-2.73,2.57s-2.8-.95-2.8-2.57,1.02-2.54,2.8-2.54,2.73.92,2.73,2.54ZM135.64,134.89c.32,0,.48.16.48.48v16.81c0,.35-.16.51-.48.51h-3.75c-.32,0-.48-.16-.48-.51v-16.81c0-.32.16-.48.48-.48h3.75Z"/>
    <path class="thales-cyan" d="M154.07,136.13c1.27,1.14,1.59,2.92,1.59,6.23v9.82c0,.35-.16.51-.51.51h-3.75c-.32,0-.48-.16-.48-.51v-8.61c0-2.38-.03-3.4-.64-4.07-.54-.67-1.11-.7-2.76-.7h-2.89v13.38c0,.35-.16.51-.48.51h-3.78c-.32,0-.48-.16-.48-.51v-16.43c0-.38.16-.41.48-.48,1.62-.35,4.13-.54,7.59-.54,3.21,0,4.86.25,6.1,1.4Z"/>
    <path class="thales-cyan" d="M174.09,135.34c.44.06.67.32.67.79v16.17c0,2.06-.16,3.3-.79,4.48-.83,1.72-2.96,2.48-6.99,2.48-2.19,0-4.16-.16-5.88-.44-.29-.03-.44-.22-.44-.51v-2.41c0-.32.16-.48.44-.48h5.47c2.76,0,3.46-.6,3.46-2.73v-.19c-1.24.22-2.54.35-3.88.35-2.89,0-4.83-.64-5.85-1.91-.98-1.27-1.49-3.75-1.49-7.4s.54-5.85,1.65-7.02c1.11-1.18,3.3-1.78,6.64-1.78,2.45,0,4.8.19,6.99.6ZM170.02,138.8h-3.15c-1.46,0-2.38.32-2.8.98-.38.67-.57,1.97-.57,3.97s.22,3.43.64,4.07c.44.6,1.46.92,3.05.92,1.18,0,2.1-.06,2.83-.19v-9.75Z"/>
    <path class="thales-cyan" d="M197.73,136.07c1.08.89,1.62,2.26,1.62,4.13v10.99c0,.51-.22.83-.7.98-1.94.44-4.35.67-7.21.67-2.67,0-4-.13-5.4-.86-1.37-.76-1.91-2.19-1.94-4.64.03-2.03.54-3.4,1.56-4.13,1.05-.73,2.7-1.08,4.96-1.08h4.04v-1.14c0-1.46-.99-2.19-2.99-2.19h-5.75c-.35,0-.44-.1-.44-.48v-2.6c0-.35.1-.41.44-.51,1.62-.32,3.53-.48,5.75-.48,2.96,0,4.99.44,6.07,1.33ZM194.65,145.19h-3.65c-1.65,0-2.22.51-2.22,1.91,0,1.49.67,1.94,2.7,1.94,1.37,0,2.41-.1,3.18-.32v-3.53Z"/>
    <path class="thales-cyan" d="M219.91,128.25c.35.06.51.25.51.6v2.64c0,.35-.19.51-.54.51h-2.51c-1.3,0-1.78.22-1.78,1.24v1.68h3.88c.32,0,.44.19.38.54l-.48,2.67c-.06.29-.25.44-.54.44h-3.24v13.6c0,.35-.16.51-.48.51h-3.75c-.32,0-.48-.16-.48-.51v-13.6h-2.07c-.35,0-.54-.16-.54-.48v-2.7c0-.32.19-.48.54-.48h2.07v-2.51c0-1.91.6-3.15,1.75-3.75,1.14-.6,2.19-.73,3.84-.73,1.18,0,2.32.1,3.43.32Z"/>
    <path class="thales-cyan" d="M237.26,134.89c.29,0,.44.16.44.48v16.4c0,.38-.1.44-.44.54-1.87.35-4.42.54-7.63.54s-4.83-.25-6.1-1.4c-1.24-1.14-1.56-2.92-1.56-6.26v-9.82c0-.32.16-.48.51-.48h3.75c.29,0,.44.16.44.48v8.61c0,1.56.1,2.67.29,3.34.38,1.27.98,1.46,3.15,1.46h2.86v-13.41c0-.32.16-.48.48-.48h3.81Z"/>
    <path class="thales-cyan" d="M246.79,129.97c.35-.1.51.06.51.48v4.54h2.92c.35,0,.54.16.54.48v2.54c0,.32-.19.48-.54.48h-2.92v8.68c0,1.3.44,1.62,1.87,1.62h1.3c.35,0,.54.16.54.48v2.7c0,.35-.16.54-.51.6-.95.19-1.84.29-2.7.29-1.37,0-1.94,0-2.99-.29-1.49-.41-2.1-1.4-2.22-3.81v-10.26h-1.87c-.35,0-.51-.16-.51-.48v-2.54c0-.32.16-.48.51-.48h1.87v-3.53c0-.29.16-.44.44-.51l3.75-.98Z"/>
    <path class="thales-cyan" d="M268.72,134.89c.29,0,.44.16.44.48v16.4c0,.38-.1.44-.44.54-1.87.35-4.42.54-7.63.54s-4.83-.25-6.1-1.4c-1.24-1.14-1.56-2.92-1.56-6.26v-9.82c0-.32.16-.48.51-.48h3.75c.29,0,.44.16.44.48v8.61c0,1.56.1,2.67.29,3.34.38,1.27.98,1.46,3.15,1.46h2.86v-13.41c0-.32.16-.48.48-.48h3.81Z"/>
    <path class="thales-cyan" d="M282.86,135.08c.35.1.51.29.51.64v2.6c0,.32-.19.48-.54.48h-2.99c-1.75,0-2.22.32-2.22,1.62v11.76c0,.35-.16.51-.48.51h-3.78c-.32,0-.48-.16-.48-.51v-12.96c0-1.52.51-2.67,1.18-3.3,1.18-.98,2.8-1.18,4.58-1.18s3.21.13,4.23.35Z"/>
    <path class="thales-cyan" d="M299.35,136.51c1.05,1.18,1.56,3.53,1.59,7.05v.98c0,.64-.22.86-1.02.86h-9.98c.03,1.4.25,2.32.73,2.73.48.41,1.43.64,2.86.64h5.62c.32,0,.48.16.48.48v2.64c0,.29-.16.48-.44.51-1.43.29-3.43.44-6.07.44-3.21,0-5.34-.6-6.39-1.81-1.05-1.21-1.59-3.62-1.59-7.24s.54-6.07,1.59-7.24c1.05-1.21,3.18-1.81,6.39-1.81s5.21.6,6.23,1.78ZM289.91,142.33h6.29c-.03-2.76-.76-3.53-3.08-3.53s-3.18.76-3.21,3.53Z"/>
    <path class="thales-navy" d="M333.73,135.31c.35,0,.41.1.38.51l-2.8,13.44c-.35,1.56-.73,2.57-1.14,2.99s-1.27.6-2.57.6c-1.37,0-2.22-.19-2.57-.54-.35-.38-.73-1.4-1.11-3.05l-2.07-8.9-2.06,8.9c-.38,1.65-.76,2.67-1.11,3.05-.35.35-1.21.54-2.57.54-1.27,0-2.13-.19-2.57-.6-.41-.41-.79-1.43-1.14-2.99l-2.8-13.44c-.03-.41.03-.51.38-.51h2.32c.16,0,.29.16.38.51l2.61,13.06c.25,1.05.38,1.21.86,1.21.54,0,.6-.1.86-1.21l3.08-12.55c.1-.35.22-.51.44-.51h2.67c.22,0,.35.16.44.51l3.08,12.55c.25,1.11.32,1.21.86,1.21.48,0,.6-.16.86-1.21l2.6-13.06c.1-.41.16-.51.41-.51h2.29Z"/>
    <path class="thales-navy" d="M349.65,136.83c.92,1.11,1.43,3.34,1.46,6.7v.92c0,.67-.22.89-1.14.89h-10.1c.03,1.94.32,3.24.86,3.88s1.68.95,3.37.95h5.21c.32,0,.48.16.48.48v1.4c0,.29-.16.48-.44.51-1.4.19-3.18.29-5.31.29-2.95,0-4.92-.57-5.85-1.72-.92-1.18-1.4-3.53-1.4-7.12s.48-5.94,1.4-7.12c.92-1.18,2.89-1.75,5.85-1.75s4.7.57,5.62,1.68ZM340.69,138.83c-.54.67-.83,2-.86,4.04h8.23c-.03-2.07-.32-3.4-.83-4.07-.51-.67-1.59-.98-3.21-.98s-2.8.35-3.34,1.02Z"/>
    <path class="thales-navy" d="M373.48,135.43c.29.03.44.22.44.54v1.37c0,.32-.16.48-.48.48h-4.8c-1.87,0-3.05.38-3.56,1.18-.51.79-.76,2.45-.76,5.02s.25,4.19.76,4.99c.51.79,1.68,1.18,3.56,1.18h4.8c.32,0,.48.16.48.48v1.37c0,.32-.16.51-.44.54-1.4.19-3.02.29-4.83.29-3.18,0-4.86-.38-6.01-1.78-1.11-1.4-1.37-3.34-1.37-7.05s.25-5.66,1.37-7.05c1.14-1.43,2.83-1.81,6.01-1.81,1.81,0,3.43.1,4.83.29Z"/>
    <path class="thales-navy" d="M389.94,140.13v11.12c0,.44-.19.73-.6.89-1.24.48-3.59.7-7.05.7-2.22,0-3.81-.35-4.73-1.02-.92-.7-1.4-2.07-1.4-4.1,0-3.65,1.81-4.89,5.62-4.89l5.12-.03v-2.13c0-2-1.18-2.86-4.13-2.86h-4.77c-.38,0-.48-.1-.48-.48v-1.3c0-.35.1-.41.44-.51,1.49-.25,3.11-.38,4.8-.38,4.96,0,7.18,1.52,7.18,4.99ZM386.89,145.28h-5.05c-1.81,0-2.67.64-2.67,2.38,0,2.03.95,2.57,3.65,2.57,1.75,0,3.08-.13,4.07-.38v-4.57Z"/>
    <path class="thales-navy" d="M404.85,135.37c.83.13,1.56.44,2.19.98,1.27,1.02,1.59,2.8,1.59,6.23v9.63c0,.32-.19.48-.54.48h-2.03c-.32,0-.48-.16-.48-.48v-9.37c0-1.94-.22-3.11-.51-3.84-.16-.38-.41-.64-.79-.79-.76-.35-1.27-.38-2.7-.38h-4.35v14.39c0,.32-.16.48-.48.48h-2.1c-.32,0-.48-.16-.48-.48v-16.05c0-.41.16-.44.48-.51,1.75-.35,3.97-.51,6.61-.51,1.56,0,2.76.06,3.59.22Z"/>
    <path class="thales-navy" d="M432.78,140.13v11.12c0,.44-.19.73-.6.89-1.24.48-3.59.7-7.05.7-2.22,0-3.81-.35-4.73-1.02-.92-.7-1.4-2.07-1.4-4.1,0-3.65,1.81-4.89,5.62-4.89l5.12-.03v-2.13c0-2-1.18-2.86-4.13-2.86h-4.77c-.38,0-.48-.1-.48-.48v-1.3c0-.35.1-.41.44-.51,1.49-.25,3.11-.38,4.8-.38,4.96,0,7.18,1.52,7.18,4.99ZM429.73,145.28h-5.05c-1.81,0-2.67.64-2.67,2.38,0,2.03.95,2.57,3.65,2.57,1.75,0,3.08-.13,4.07-.38v-4.57Z"/>
    <path class="thales-navy" d="M439.61,128.63c.32,0,.48.16.48.48v23.1c0,.32-.16.48-.48.48h-2.1c-.32,0-.48-.16-.48-.48v-23.1c0-.32.16-.48.48-.48h2.1Z"/>
    <path class="thales-navy" d="M447.05,128.63c.32,0,.48.16.48.48v23.1c0,.32-.16.48-.48.48h-2.1c-.32,0-.48-.16-.48-.48v-23.1c0-.32.16-.48.48-.48h2.1Z"/>
    <path class="thales-navy" d="M462.46,130.51c.35-.1.54.03.54.41v4.42h3.34c.35,0,.51.16.51.48v1.49c0,.32-.16.48-.51.48h-3.34v10.68c0,1.4.38,1.72,2.06,1.72h1.53c.35,0,.51.16.51.44v1.52c0,.29-.16.44-.48.51-.51.13-1.11.19-1.78.19-1.24,0-1.65,0-2.7-.25-1.4-.35-2.07-1.21-2.19-3.37v-11.44h-1.78c-.32,0-.48-.16-.48-.48v-1.49c0-.32.16-.48.48-.48h1.78v-3.81c0-.29.13-.44.41-.51l2.1-.51Z"/>
    <path class="thales-navy" d="M478.47,135.5c.32.1.48.29.48.54v1.33c0,.35-.16.48-.51.44h-2.76c-2.19,0-2.76.35-2.76,1.78v12.61c0,.32-.16.48-.48.48h-2.06c-.32,0-.48-.16-.48-.48v-13.35c0-1.37.57-2.38,1.21-2.86.35-.25.76-.44,1.27-.57,1.02-.29,1.56-.29,2.54-.29,1.72,0,2.89.13,3.56.35Z"/>
    <path class="thales-navy" d="M495.44,135.31c.32,0,.48.16.48.48v16.08c0,.38-.16.41-.48.48-1.78.35-3.97.51-6.61.51-1.56,0-2.76-.06-3.59-.19-.83-.16-1.56-.48-2.19-1.02-1.27-1.05-1.59-2.83-1.59-6.26v-9.6c0-.32.19-.48.54-.48h2.03c.32,0,.48.16.48.48v9.37c0,2.41.13,3.65.86,4.32.76.64,1.37.7,3.15.7h4.35v-14.39c0-.32.16-.48.48-.48h2.1Z"/>
    <path class="thales-navy" d="M511.04,135.43c.29.03.44.22.44.51v1.37c0,.32-.16.48-.48.48h-5.91c-1.56,0-2.32.54-2.32,1.65v.41c0,.98.67,1.75,1.97,2.22l4.23,1.68c2.64,1.02,3.18,2.35,3.18,4.48v.35c0,1.68-.51,2.83-1.49,3.4-.98.57-2.61.86-4.93.86s-4.19-.1-5.81-.29c-.32-.03-.48-.19-.48-.48v-1.4c0-.32.16-.48.48-.48h5.88c2.57,0,3.34-.29,3.34-1.65v-.38c0-.98-.44-1.52-1.84-2.13l-4.51-1.72c-2.03-.79-3.05-2.29-3.05-4.54v-.67c0-1.68.7-2.8,1.97-3.3,1.3-.51,2.54-.67,4.48-.67,1.65,0,3.27.1,4.86.29Z"/>
    <path class="thales-navy" d="M519.02,130.51c.35-.1.54.03.54.41v4.42h3.34c.35,0,.51.16.51.48v1.49c0,.32-.16.48-.51.48h-3.34v10.68c0,1.4.38,1.72,2.06,1.72h1.53c.35,0,.51.16.51.44v1.52c0,.29-.16.44-.48.51-.51.13-1.11.19-1.78.19-1.24,0-1.65,0-2.7-.25-1.4-.35-2.07-1.21-2.19-3.37v-11.44h-1.78c-.32,0-.48-.16-.48-.48v-1.49c0-.32.16-.48.48-.48h1.78v-3.81c0-.29.13-.44.41-.51l2.1-.51Z"/>
  </g>
</svg>